/* XPM */
static char *bitcoin16_xpm[] = {
/* width height num_colors chars_per_pixel */
"    16    16      256            2",
/* colors */
"`` c #ffffff",
"`. c #fefefe",
"`# c #fae2c8",
"`a c #f3b979",
"`b c #fce2c4",
"`c c #b9a289",
"`d c #a57f58",
"`e c #b7997a",
"`f c #d2bfab",
"`g c #f3efea",
"`h c #fdf8f2",
"`i c #f0a553",
"`j c #ec8e25",
"`k c #fbdab5",
"`l c #c2b09d",
"`m c #a17f5b",
"`n c #a07a52",
"`o c #a17a51",
"`p c #ae8d6a",
"`q c #e1d4c7",
"`r c #fdf6ee",
"`s c #efa44f",
"`t c #f9dcbc",
"`u c #f8f3ef",
"`v c #dccfc2",
"`w c #b0967b",
"`x c #a27c54",
"`y c #ddcfc0",
"`z c #fdf7ef",
"`A c #efa552",
"`B c #f9dcbd",
"`C c #fdf3e8",
"`D c #fcead7",
"`E c #fef9f3",
"`F c #fbf9f6",
"`G c #c5b19b",
"`H c #a8845e",
"`I c #ece5dd",
"`J c #e8dfd6",
"`K c #dfd3c6",
"`L c #fefdfd",
"`M c #f0a654",
"`N c #efa34e",
"`O c #ee9c40",
"`P c #ed9532",
"`Q c #ef9f47",
"`R c #f9c68d",
"`S c #fefbf8",
"`T c #fdfdfc",
"`U c #bba48a",
"`V c #c2a98f",
"`W c #b69777",
"`X c #a27e57",
"`Y c #f6f2ed",
"`Z c #fefbf7",
"`0 c #f1a754",
"`1 c #ed9737",
"`2 c #ee9a3d",
"`3 c #fdf5eb",
"`4 c #f1eae2",
"`5 c #a17d58",
"`6 c #a47f57",
"`7 c #e6dcd1",
"`8 c #ddd0c2",
".` c #fdfcfc",
".. c #fdf7f1",
".# c #f0a755",
".a c #efa149",
".b c #f9dfc2",
".c c #fbecdb",
".d c #f7d2a8",
".e c #f9ddbe",
".f c #f9dfc1",
".g c #fce8d1",
".h c #fcfbfa",
".i c #b9a189",
".j c #f0a552",
".k c #f7d5ae",
".l c #fcefe1",
".m c #f3b775",
".n c #f6b164",
".o c #f8f4f0",
".p c #cdbcab",
".q c #b59676",
".r c #b39474",
".s c #f6f2ee",
".t c #f0a653",
".u c #f9dbba",
".v c #fbe7d1",
".w c #f2b672",
".x c #f8c58b",
".y c #fbf9f7",
".z c #cebdac",
".A c #ad8b67",
".B c #eae1d7",
".C c #f5b875",
".D c #f0ab5e",
".E c #fae4cc",
".F c #fae5ce",
".G c #f7d1a7",
".H c #fbdab6",
".I c #fcfaf9",
".J c #bfa992",
".K c #c5ad94",
".L c #cab7a3",
".M c #fce8d2",
".N c #ef9836",
".O c #ed9838",
".P c #efa14b",
".Q c #ec912a",
".R c #f0ab5d",
".S c #fef8f2",
".T c #fefefd",
".U c #f7f2ed",
".V c #a58461",
".W c #e4d9cd",
".X c #a27c53",
".Y c #a8835d",
".Z c #eee9e3",
".0 c #fbe1c3",
".1 c #f1a652",
".2 c #ed9430",
".3 c #f7b66c",
".4 c #fdf5ec",
".5 c #c7b4a0",
".6 c #ba9d7f",
".7 c #bfa488",
".8 c #b59675",
"#` c #f2eee9",
"#. c #fefaf5",
"## c #fae4cb",
"#a c #fadfc1",
"#b c #fcebd8",
"#c c #d5c7b9",
"#d c #a37d55",
"#e c #e3d7cb",
"#f c #f2ece7",
"#g c #b08f6d",
"#h c #af8e6b",
"#i c #dacdc0",
"#j c #f8f5f2",
"#k c #efe9e4",
"#l c #c4b09b",
"#m c #d0bda9",
"#n c #efe8e1",
"#o c #b69879",
"#p c #ad8d6b",
"#q c #bba388",
"#r c #bfa78f",
"#s c #b59a7d",
"#t c #a47e57",
"#u c #d2c0ad",
"#v c #f9f6f4",
"#w c #d5c4b1",
"#x c #b19170",
"#y c #a58059",
"#z c #a37e56",
"#A c #a8845f",
"#B c #c0a68b",
"#C c #e7ded4",
"#D c #000000",
"#E c #000000",
"#F c #000000",
"#G c #000000",
"#H c #000000",
"#I c #000000",
"#J c #000000",
"#K c #000000",
"#L c #000000",
"#M c #000000",
"#N c #000000",
"#O c #000000",
"#P c #000000",
"#Q c #000000",
"#R c #000000",
"#S c #000000",
"#T c #000000",
"#U c #000000",
"#V c #000000",
"#W c #000000",
"#X c #000000",
"#Y c #000000",
"#Z c #000000",
"#0 c #000000",
"#1 c #000000",
"#2 c #000000",
"#3 c #000000",
"#4 c #000000",
"#5 c #000000",
"#6 c #000000",
"#7 c #000000",
"#8 c #000000",
"a` c #000000",
"a. c #000000",
"a# c #000000",
"aa c #000000",
"ab c #000000",
"ac c #000000",
"ad c #000000",
"ae c #000000",
"af c #000000",
"ag c #000000",
"ah c #000000",
"ai c #000000",
"aj c #000000",
"ak c #000000",
"al c #000000",
"am c #000000",
"an c #000000",
"ao c #000000",
"ap c #000000",
"aq c #000000",
"ar c #000000",
"as c #000000",
"at c #000000",
"au c #000000",
"av c #000000",
"aw c #000000",
"ax c #000000",
"ay c #000000",
"az c #000000",
"aA c #000000",
"aB c #000000",
"aC c #000000",
"aD c #000000",
"aE c #000000",
"aF c #000000",
"aG c #000000",
"aH c #000000",
"aI c #000000",
"aJ c #000000",
"aK c #000000",
"aL c #000000",
"aM c #000000",
"aN c #000000",
"aO c #000000",
"aP c #000000",
"aQ c #000000",
"aR c #000000",
"aS c #000000",
"aT c #000000",
"aU c #000000",
"aV c #000000",
"aW c #000000",
"aX c #000000",
"aY c #000000",
"aZ c #000000",
"a0 c #000000",
"a1 c #000000",
"a2 c #000000",
"a3 c #000000",
"a4 c #000000",
"a5 c #000000",
"a6 c #000000",
"a7 c #000000",
"a8 c #000000",
/* pixels */
"```````.`#`a`b```c`d`e`f`g``````",
"```````h`i`j`k```l`m`n`o`p`q````",
"```````r`s`j`t`````u`v`w`o`x`y``",
"```````z`A`j`B`C`D`E```F`G`o`H`I",
"`J`K`L`h`M`j`N`O`P`Q`R`S`T`U`o`V",
"`W`X`Y`Z`0`j`j`j`1`j`2`3```4`5`6",
"`7`8.`...#`j.a.b.c.d.e.f.g.h.i`o",
"`L`````r.j`j.k``````.l.m.n.o.p`o",
".q.r.s`S.t`j.u``````.v.w.x.y.z`o",
".A`n.B``.C`j.D.l``.E.F.G.H.I.J`o",
".K`o.L``.M.N`j.O.P.Q.R.S.T.U.V`o",
".W.X.Y.Z``.0.1`j`j.2.3.4``.5`o.6",
".h.7`o.8#```#.###a#b````#c`x#d#e",
"``#f#g`o#h#i#j`````.#k#l`o`o#m``",
"````#n#o`o`o#p#q#r#s`d`o#t#u`.``",
"``````#v#w#x#y#t#z`d#A#B#C``````"
};
