/* XPM */
static char *bitcoin64_xpm[] = {
/* width height num_colors chars_per_pixel */
"    64    64      256            2",
/* colors */
"`` c #a47a54",
"`. c #f4be7c",
"`# c #ece2d4",
"`a c #bc9e7c",
"`b c #dcd2c4",
"`c c #ec9e44",
"`d c #f4f2ec",
"`e c #ec8e24",
"`f c #d4beac",
"`g c #ece2dc",
"`h c #f4d2a4",
"`i c #ac8e6c",
"`j c #c4ae94",
"`k c #f4ae5c",
"`l c #eceae4",
"`m c #fcfaf4",
"`n c #fcdab4",
"`o c #ac8664",
"`p c #f4ca9c",
"`q c #f4cea4",
"`r c #f4b66c",
"`s c #bca68c",
"`t c #e4dacc",
"`u c #dccabc",
"`v c #ccb69c",
"`w c #fceadc",
"`x c #f4c68c",
"`y c #fce2c4",
"`z c #fcf2e4",
"`A c #b49674",
"`B c #a4825c",
"`C c #eca654",
"`D c #ec9634",
"`E c #fcd6ac",
"`F c #fcead4",
"`G c #f4c28c",
"`H c #d4c6b4",
"`I c #ccb29c",
"`J c #f4b26c",
"`K c #f4eae4",
"`L c #fcdec4",
"`M c #f4ba7c",
"`N c #c4a68c",
"`O c #ecded4",
"`P c #fce6d4",
"`Q c #fcf6f4",
"`R c #a47e54",
"`S c #f4c284",
"`T c #bca284",
"`U c #e4d2c4",
"`V c #ec922c",
"`W c #d4c2ac",
"`X c #ece6dc",
"`Y c #f4d6ac",
"`Z c #b4926c",
"`0 c #c4b294",
"`1 c #f4b264",
"`2 c #fcfefc",
"`3 c #fcdebc",
"`4 c #ac8a64",
"`5 c #f4ba74",
"`6 c #e4ded4",
"`7 c #dccebc",
"`8 c #ccbaa4",
".` c #fceedc",
".. c #fce6cc",
".# c #fcf6ec",
".a c #bc9a7c",
".b c #f4a654",
".c c #f4eee4",
".d c #c4aa8c",
".e c #f4be84",
".f c #bc9e84",
".g c #eca24c",
".h c #f4f6f4",
".i c #ec8e2c",
".j c #f4d2ac",
".k c #f4ae64",
".l c #fcfafc",
".m c #fcdabc",
".n c #f4ce9c",
".o c #f4b674",
".p c #e4dad4",
".q c #ccb6a4",
".r c #f4c694",
".s c #fce2cc",
".t c #fcf2ec",
".u c #b49a7c",
".v c #ac825c",
".w c #ec9a3c",
".x c #fcd6b4",
".y c #a47e5c",
".z c #e4d6cc",
".A c #d4c2b4",
".B c #ece6e4",
".C c #b49274",
".D c #c4b29c",
".E c #ac8a6c",
".F c #dccec4",
".G c #fceee4",
".H c #f4aa5c",
".I c #f4eeec",
".J c #c4aa94",
".K c #000000",
".L c #000000",
".M c #000000",
".N c #000000",
".O c #000000",
".P c #000000",
".Q c #000000",
".R c #000000",
".S c #000000",
".T c #000000",
".U c #000000",
".V c #000000",
".W c #000000",
".X c #000000",
".Y c #000000",
".Z c #000000",
".0 c #000000",
".1 c #000000",
".2 c #000000",
".3 c #000000",
".4 c #000000",
".5 c #000000",
".6 c #000000",
".7 c #000000",
".8 c #000000",
"#` c #000000",
"#. c #000000",
"## c #000000",
"#a c #000000",
"#b c #000000",
"#c c #000000",
"#d c #000000",
"#e c #000000",
"#f c #000000",
"#g c #000000",
"#h c #000000",
"#i c #000000",
"#j c #000000",
"#k c #000000",
"#l c #000000",
"#m c #000000",
"#n c #000000",
"#o c #000000",
"#p c #000000",
"#q c #000000",
"#r c #000000",
"#s c #000000",
"#t c #000000",
"#u c #000000",
"#v c #000000",
"#w c #000000",
"#x c #000000",
"#y c #000000",
"#z c #000000",
"#A c #000000",
"#B c #000000",
"#C c #000000",
"#D c #000000",
"#E c #000000",
"#F c #000000",
"#G c #000000",
"#H c #000000",
"#I c #000000",
"#J c #000000",
"#K c #000000",
"#L c #000000",
"#M c #000000",
"#N c #000000",
"#O c #000000",
"#P c #000000",
"#Q c #000000",
"#R c #000000",
"#S c #000000",
"#T c #000000",
"#U c #000000",
"#V c #000000",
"#W c #000000",
"#X c #000000",
"#Y c #000000",
"#Z c #000000",
"#0 c #000000",
"#1 c #000000",
"#2 c #000000",
"#3 c #000000",
"#4 c #000000",
"#5 c #000000",
"#6 c #000000",
"#7 c #000000",
"#8 c #000000",
"a` c #000000",
"a. c #000000",
"a# c #000000",
"aa c #000000",
"ab c #000000",
"ac c #000000",
"ad c #000000",
"ae c #000000",
"af c #000000",
"ag c #000000",
"ah c #000000",
"ai c #000000",
"aj c #000000",
"ak c #000000",
"al c #000000",
"am c #000000",
"an c #000000",
"ao c #000000",
"ap c #000000",
"aq c #000000",
"ar c #000000",
"as c #000000",
"at c #000000",
"au c #000000",
"av c #000000",
"aw c #000000",
"ax c #000000",
"ay c #000000",
"az c #000000",
"aA c #000000",
"aB c #000000",
"aC c #000000",
"aD c #000000",
"aE c #000000",
"aF c #000000",
"aG c #000000",
"aH c #000000",
"aI c #000000",
"aJ c #000000",
"aK c #000000",
"aL c #000000",
"aM c #000000",
"aN c #000000",
"aO c #000000",
"aP c #000000",
"aQ c #000000",
"aR c #000000",
"aS c #000000",
"aT c #000000",
"aU c #000000",
"aV c #000000",
"aW c #000000",
"aX c #000000",
"aY c #000000",
"aZ c #000000",
"a0 c #000000",
"a1 c #000000",
"a2 c #000000",
"a3 c #000000",
"a4 c #000000",
"a5 c #000000",
"a6 c #000000",
"a7 c #000000",
"a8 c #000000",
/* pixels */
"`2`2`2`2`2`2`2`2`2`2`2`2`2`2`2`2`2`2`2`2`Q`n.e`z`2`2`2`2`2`2.l`A`````R`R`B`o`i.d.F.h`2`2`2`2`2`2`2`2`2`2`2`2`2`2`2`2`2`2`2`2`2`2",
"`2`2`2`2`2`2`2`2`2`2`2`2`2`2`2`2`2`2`F`M.w`V`V.G`2`2`2`2`2`2`m.u`````````````````R`o`N`6`2`2`2`2`2`2`2`2`2`2`2`2`2`2`2`2`2`2`2`2",
"`2`2`2`2`2`2`2`2`2`2`2`2`2`2`2`2`y.k`V`e`e`e`D.G`2`2`2`2`2`2.l`A```````````````````````R`A`U`2`2`2`2`2`2`2`2`2`2`2`2`2`2`2`2`2`2",
"`2`2`2`2`2`2`2`2`2`2`2`2`2`2.G`J`V`e`e`e.i`e`D.G`2`2`2`2`2`2.l.u```````````````````````````R`A.p`2`2`2`2`2`2`2`2`2`2`2`2`2`2`2`2",
"`2`2`2`2`2`2`2`2`2`2`2`2`2`2`E`V`e`e`e`e`e`e`D`z`2`2`2`2`2`2`m`A`````````````````````````````````j.t`2`2`2`2`2`2`2`2`2`2`2`2`2`2",
"`2`2`2`2`2`2`2`2`2`2`2`2`2`2.x`V`e`e`e`e`e`e`D.G`2`2`2`2`2`2.l`A```````````````````````````````````i`t`2`2`2`2`2`2`2`2`2`2`2`2`2",
"`2`2`2`2`2`2`2`2`2`2`2`2`2`2.x`V`e.i`e`e.i`e`D`z`2`2`2`2`2`2.l.u`R`R`R```````````````````````````````R`H.l`2`2`2`2`2`2`2`2`2`2`2",
"`2`2`2`2`2`2`2`2`2`2`2`2`2`2.x`D`e`e`e`e`e`e`D.G`2`2`2`2`2`2`2`O`b`H`8.u`i`R`R```````````````````````````v.h`2`2`2`2`2`2`2`2`2`2",
"`2`2`2`2`2`2`2`2`2`2`2`2`2`2.x`V`e`e`e`e`e`e`D`z`2`2`2`2`2`2`2`2`2`2`2`2.h`#`8`A`B`R```````````````````````j`d`2`2`2`2`2`2`2`2`2",
"`2`2`2`2`2`2`2`2`2`2`2`2`2`2.x`V`e.i`e`e.i`e`D.G`2`2`2`2`2`2`2`2`2`2`2`2`2`2`2`2`t`T`B`R`````````````````````0`Q`2`2`2`2`2`2`2`2",
"`2`2`2`2`2`2`2`2`2`2`2`2`2`2.x`D`e`e`e`e`e`e`D`z`2`2`2`2`2`2`2`2`2`2`2`2`2`2`2`2`2`2`t.u`R`R```````````````````8`2`2`2`2`2`2`2`2",
"`2`2`2`2`2`2`2`2`2`2`2`2`2`2.x`V`e`e`e`e`e`e`D.G`2`2`2`2`2`2`2`2`2`2`2`2`2`2`2`2`2`2`2`2`H`4`````````````````````7`2`2`2`2`2`2`2",
"`2`2`2`2`2`2`2`2`2`2`2`2`2`2.x`V`e`e.i`e`e.i`D`z`2`2`2`2`2`2`2`2`2`2`2`2`2`2`2`2`2`2`2`2`2`6.u`R`````````````````B`X`2`2`2`2`2`2",
"`2`2`2`2`2`2`2`2`2`2`2`2`2`2.x`D`e`e`e`e`e`e`D.``2`2`2`2`2`2`2`2`2`2`2`2`2`2`2`2`2`2`2`2`2`2`d`T`R`````````````````A`Q`2`2`2`2`2",
"`2`2`2`2`2`2`2`2`2`2`2`2`2`2.x`V`e`e`e`e`e`e`D`z`2`2`2`2.l.#`z`z.t`m`2`2`2`2`2`2`2`2`2`2`2`2`2.h`s`R`````````````````W`2`2`2`2`2",
"`2`2`2`2`2`2`2`2`2`2`2`2`2`2.x`V`e.i`e`e.i`e`D.#`2`z`L`p.e`J.H.H`1`M.r`n`w`2`2`2`2`2`2`2`2`2`2`2`d`T`````````````````B`l`2`2`2`2",
"`2`2`2`2`2`2`2`2`2`2`2`2`2`2.x`D`e`e`e`e`e`e.w`3`q.k`V`e`e`e`e`e`e`e`e`e.b.e`y`2`2`2`2`2`2`2`2`2`2`l`Z`R```````````````j`2`2`2`2",
"`2.I.z`t.I`2`2`2`2`2`2`2`2`2.x`V`e`e`e`e`e`e`V`c`e`e`e`e`e`e`e`e.i`e`e`e`e`e`D`G.``2`2`2`2`2`2`2`2`2`6`B```````````````R`l`2`2`2",
"`b.a`B.v.f.z`2`2`2`2`2`2`2`2.x`V`e`e.i`e`e.i`e`e`e`e`e`e`e`e.i`e`e`e`e`e`e`e.i`e.b`L`2`2`2`2`2`2`2`2`2`0`R```````````````0`2`2`2",
"`B`````````4`X`2`2`2`2`2`2`2.x`D`e`e`e`e`e`e`e`e`e`e`e`e.i`e`e`e`e`e`e`e.i`e`e`e`e.w`q`2`2`2`2`2`2`2`2`d`i```````````````B.h`2`2",
"`````````````0`2`2`2`2`2`2`2.x`V`e`e`e`e`e`e.i`e`e.i`e`e`e`e`e`e.i`e`e`e`e`e`e`e`e`e`.`2`2`2`2`2`2`2`2`2`H`R`````````````R`H`2`2",
"`````````````T`2`2`2`2`2`2`2.x`V`e.i`e`e.i`e`e`e`e`e`e`e`e`e.i`e`e`e`e.i`e`e`e`e`e`M`z`2`2`2`2`2`2`2`2`2`m`A``````````````.u`2`2",
"`````````````j`2`2`2`2`2`2`2.x`D`e`e`e`e`e`e`e`e`e`e.i`e`e`e`e`e`e`e`e`e`e`e.i`e`M.#`2`2`2`2`2`2`2`2`2`2`2`8`R`````````````B`d`2",
"`R`````````B`X`2`2`2`2`2`2`2.x`V`e`e`e`e`e`e.i`e`e`e`e`e.k`G.n`q.r`r`D.i`e`e`e`M.#`2`2`2`2`2`2`2`2`2`2`2`2.I`4```````````R`R`H`2",
"`b`A```R.u`t`2`2`2`2`2`2`2`2.x`V`e`e.i`e`e`e`e`e`e.i.H`n`z`m`2`2`2.t.s`5`e`e`M.#`2.l.``2`2`2`2`2`2`2`2`2`2`2.u`````````````R`0`2",
"`2`l`6`t.c`2`2`2`2`2`2`2`2`2.x`D`e`e`e`e`e.i`e`e`e.o.``2`2`2`2`2`2`2`2.#`p.e.#`2.t`5`c`p`2.t`x.o`F`2`2`2`2`2`8`R````````````.u`d",
"`2`2`2`2`2`2`2`2`2`2`2`2`2`2.x`V`e`e`e.i`e`e`e`e.k`z`2`2`2`2`2`2`2`2`2`2`2`Q`2`2`y`V`e.H`m`F`c`e`n`2`2`2`2`2`6`B`````````````B`6",
"`2`2`2`2`2`2`2`2`2`2`2`2`2`2.x`V`e.i`e`e`e`e`e`D`F`2`2`2`2`2`2`2`2`2`2`2`2`2`2`2.#`G.b`q`2`w.b`e`L`2`2`2`2`2`Q`4`````````````B`7",
"`2`2`2`2`2`2`2`2`2`2`2`2`2`2.x`D`e`e`e`e`e.i`e.e.l`2`2`2`2`2`2`2`2`2`2`2`2`2`2`2`2.s`q.G`m`q`D`e`G.``2`2`2`2`2`Z`````````````R`W",
"`2`2`2`2`2`2`2`2`2`2`2`2`2`2.x`V`e`e`e`e`e`e`e..`2`2`2`2`2`2`2`2`2`2`2`2`2`2`2`2.#.o.w`E.m`D`e`e`V`M`Q`2`2`2`2.u`````````````R`8",
"`2`2`2`2`2`2`2`2`2`2`2`2`2`2.x`V`e`e.i`e`e`e`D.G`2`2`2`2`2`2`2`2`2`2`2`2`2`2`2`2.t`1`e`p...b`e`e`D`p`m`2`2`2`2`T`R```````````R`0",
"`W.A`W`W.A`W.p`2`2`2`2`2`2`2.x`D`e`e`e`e`e.i.w`z`2`2`2`2`2`2`2`2`2`2`2`2`2`2`2`2.#.k`e.r`2`y`c.i`n`m`2`2`2`2`2`s`````````````R`0",
"`R```R```R`R.J`2`2`2`2`2`2`2`n`V`e`e`e.i`e`e.w.G`2`2`2`2`2`2`2`2`2`2`2`2`2`2`2`2.#`J`e`G`2`P.g`e.m`2`2`2`2`2`2`T`````````````R`0",
"````````````.d`2`2`2`2`2`2`2`3`D.i`e`e`e`e`e`e`P`2`2`2`2`2`2`2`2`2`2`2`2`2`2`2`2.#.k.i`x`2`P.g`e.m`2`2`2`2`2`2.f`````````````R.D",
"`````````````T`2`2`2`2`2`2`2..`c`e`e`e`e`e`e`e`p`2`2`2`2`2`2`2`2`2`2`2`2`2`2`2`2.#`J`e`G`2`P.g`e`n`2`2`2`2`2`2`A`````````````R`8",
"`````````````A`m`2`2`2`2`2`2.t.k`e`e.i`e`e.i`e.w`z`2`2`2`2`2`2`2`2`2`2`2`2`2`2`2.#.k`e.r`2`P.g`e.m`2`2`2`2`2.l`4```````````R`R`H",
"`````````````4`l`2`2`2`2`2`2`2`S`e`e`e`e`e`e`e`e`.`Q`2`2`2`2`2`2`2`2`2`2`2`2`2`2.#`J`e`G`2..`c`e`n`2`2`2`2`2`g`B`````````````B`t",
"`````````````B`H`2`2`2`2`2`2`2.m.w`e`e`e`e`e`e`e`e.r`Q`2`2`2`2`2`2`2`2.l`y.x`2`2.#.o`D.r`2`F.b`D.m`2`2`2`2`2`H`R```````````R`i`d",
"```````````````0`2`2`2`2`2`2`2`Q`1`e`e.i`e`e.i`e`e`e.o.``m`2`2`2`2.l`z.r`e`D.x`2`2.`.s.t`2.l`w..`m`2`2`2`2`2`N`````````````R`s`2",
"```````````````A`m`2`2`2`2`2`2`2.x`D`e`e`e`e`e`e`e`e`e`D`M`E`L.s`n`G.b`e`e`e`D.x`2`2`2`2`2`2`2`2`2`2`2`2`2`Q`i`````````````R`W`2",
"```````````````B`7`2`2`2`2`2`2`2`2.o`e`e`e`e`e.i`e`e`e`e`e`e`e`e`e`e`e`e`e`e`e`D.x`2`2`2`2`2`2`2`2`2`2`2`2`u`R`````````````R`X`2",
"`i```````````````s`2`2`2`2`2`2`2`2`w.b`e.i`e`e`e`e`e`e`e`e`e`e`e`e`e`e`e`e`e`e`e`D.x`2`2`2`2`2`2`2`2`2`2`2.a`````````````R`i`2`2",
"`0```````````````B`6`2`2`2`2`2`2`2`2`y.w`e`e`e`e.i`e`e.i`e`e.i`e`e`e`e`e`e`e`e.i`e`D`E`2`2`2`2`2`2`2`2`2.z`B`````````````R`8`2`2",
"`#`````````````R`R`s`m`2`2`2`2`2`2`2`2.m`c`e.i`e`e`e`e`e`e`e`e`e`e.i`e`e.i`e`e`e`e`V`G`2`2`2`2`2`2`2`2.l`a```````````````R`X`2`2",
"`2.u```````````````B`7`2`2`2`2`2`2`2`2`2`y.H`e`e`e`e`e`e`e`e`e.i`e`e`e`e`e`e`e`e`c.n`2`2`2`2`2`2`2`2`2`u`R```````````````T`2`2`2",
"`2`b`````````````````A.I`2`2`2`2`2`2`2`2`2`z.e.w`e`e.i`e`e.i`e`e`e`e`e`e`e.i`V`J`L`2`2`2`2`2`2`2`2`2.c.E```````````````R`t`2`2`2",
"`2`m`A`````````````````j`Q`2`2`2`2`2`2`2`2`2`2`L.o.b`e`e`e`e`e`e`e`e`e.i.w`1`q`m`2`2`2`2`2`2`2`2`2`Q`T````````````````.u`2`2`2`2",
"`2`2`b`````````````````R`8`2`2`2`2`2`2`2`2`2`2`2`2..`p.o.k`C.g`c.b.H.o`G`3`m`2`2`2`2`2`2`2`2`2`2`2.q`R```````````````R`t`2`2`2`2",
"`2`2.l`T`````````````````B`H`2`2`2`2`2`2`2`2`2`2`2`2`2`2.#`w....`F`z.l`2`2`2`2`2`2`2`2`2`2`2`2`2`f`R`````````````````s`2`2`2`2`2",
"`2`2`2`l`B`````````````````B`W`2`2`2`2`2`2`2`2`2`2`2`2`2`2`2`2`2`2`2`2`2`2`2`2`2`2`2`2`2`2`2.l`f`R`````````````````B`d`2`2`2`2`2",
"`2`2`2`2`H```````````````````B`8`m`2`2`2`2`2`2`2`2`2`2`2`2`2`2`2`2`2`2`2`2`2`2`2`2`2`2`2`2`Q`I`R`````````````````R`7`2`2`2`2`2`2",
"`2`2`2`2`m`j`````````````````````s`#`2`2`2`2`2`2`2`2`2`2`2`2`2`2`2`2`2`2`2`2`2`2`2`2`2`2`O`T`````````````````````0`2`2`2`2`2`2`2",
"`2`2`2`2`2`d.u`R```````````````````i`f.h`2`2`2`2`2`2`2`2`2`2`2`2`2`2`2`2`2`2`2`2`2`2`d`f`4`````````````````````T.h`2`2`2`2`2`2`2",
"`2`2`2`2`2`2`X`A`````````````````````R`A`u`d`2`2`2`2`2`2`2`2`2`2`2`2`2`2`2`2`2`2`d.A`A```````````````````````A`l`2`2`2`2`2`2`2`2",
"`2`2`2`2`2`2`2`6`i`R`````````````````````B`A`8`O`Q`2`2`2`2`2`2`2`2`2`2`2`2`Q.p`v.C`R```````````````````````A`X`2`2`2`2`2`2`2`2`2",
"`2`2`2`2`2`2`2`2`6`A```````````````````````````4`A`j`u.z`g`K.I.c`K`g.z`H.d`A`4``````````````````````````.u`X`2`2`2`2`2`2`2`2`2`2",
"`2`2`2`2`2`2`2`2`2`l`T`R`````````````````````````````R`o`i`i`i`i.E`4`o`B```````````````````````````````s`l`2`2`2`2`2`2`2`2`2`2`2",
"`2`2`2`2`2`2`2`2`2`2.h`0`R`````````````````````````````````````````````````````````````````````````R`8.h`2`2`2`2`2`2`2`2`2`2`2`2",
"`2`2`2`2`2`2`2`2`2`2`2`m`b`i`````````````````````````````````````````````````````````````````````i`t.h`2`2`2`2`2`2`2`2`2`2`2`2`2",
"`2`2`2`2`2`2`2`2`2`2`2`2`2`l`v`R`````````````````````````````````````````````````````````````R`8`l`2`2`2`2`2`2`2`2`2`2`2`2`2`2`2",
"`2`2`2`2`2`2`2`2`2`2`2`2`2`2`2`X`0`R`````````````````````````````````````````````````````R`0`l`m`2`2`2`2`2`2`2`2`2`2`2`2`2`2`2`2",
"`2`2`2`2`2`2`2`2`2`2`2`2`2`2`2`2.h`X`0`4`````````````````````````````````````````````B`8`l`m`2`2`2`2`2`2`2`2`2`2`2`2`2`2`2`2`2`2",
"`2`2`2`2`2`2`2`2`2`2`2`2`2`2`2`2`2`2`2`d`b`0`B`R```````````````````````````````B`0`t.h`2`2`2`2`2`2`2`2`2`2`2`2`2`2`2`2`2`2`2`2`2",
"`2`2`2`2`2`2`2`2`2`2`2`2`2`2`2`2`2`2`2`2`2`2.h`6`H`0.u`i`4`B`B`B`B`i`i.u`0`7`X.h`2`2`2`2`2`2`2`2`2`2`2`2`2`2`2`2`2`2`2`2`2`2`2`2"
};
