/* XPM */
static char *bitcoin32_xpm[] = {
/* width height num_colors chars_per_pixel */
"    32    32      256            2",
/* colors */
"`` c #a47a54",
"`. c #ccbea4",
"`# c #fce2c4",
"`a c #bc9e7c",
"`b c #dcd2c4",
"`c c #f4f2ec",
"`d c #ec9e44",
"`e c #ec8e24",
"`f c #f4be7c",
"`g c #ac8e6c",
"`h c #f4d2a4",
"`i c #ece2dc",
"`j c #f4ae5c",
"`k c #c4ae94",
"`l c #fcfaf4",
"`m c #ac865c",
"`n c #dccab4",
"`o c #f4ca94",
"`p c #eceae4",
"`q c #bca68c",
"`r c #e4dacc",
"`s c #fcf2e4",
"`t c #fcdab4",
"`u c #eca654",
"`v c #b49674",
"`w c #f4b674",
"`x c #a4825c",
"`y c #d4c6b4",
"`z c #fcead4",
"`A c #ec9634",
"`B c #f4c68c",
"`C c #fceedc",
"`D c #d4beac",
"`E c #fce6d4",
"`F c #bca28c",
"`G c #e4d2c4",
"`H c #b48e6c",
"`I c #f4b26c",
"`J c #ccb69c",
"`K c #fcf6f4",
"`L c #fcdec4",
"`M c #a47e54",
"`N c #fce6cc",
"`O c #bca284",
"`P c #f4f6f4",
"`Q c #f4a24c",
"`R c #ec922c",
"`S c #f4c28c",
"`T c #fcd6ac",
"`U c #ece6dc",
"`V c #f4b264",
"`W c #fcfefc",
"`X c #ac8a64",
"`Y c #dccebc",
"`Z c #f4cea4",
"`0 c #f4eae4",
"`1 c #c4a68c",
"`2 c #ecded4",
"`3 c #fcf6ec",
"`4 c #fcdebc",
"`5 c #f4a654",
"`6 c #d4c2ac",
"`7 c #e4d6c4",
"`8 c #b4926c",
".` c #fce2cc",
".. c #bc9e84",
".# c #f4f2f4",
".a c #eca24c",
".b c #ec8e2c",
".c c #f4be84",
".d c #f4d6ac",
".e c #f4ae64",
".f c #ccb29c",
".g c #fcfafc",
".h c #ac8664",
".i c #dccabc",
".j c #f4ca9c",
".k c #e4ded4",
".l c #fcf2ec",
".m c #fcdabc",
".n c #b49a7c",
".o c #f4ba7c",
".p c #ac825c",
".q c #ec9a3c",
".r c #f4c694",
".s c #fceee4",
".t c #ccbaa4",
".u c #a47e5c",
".v c #ece6e4",
".w c #f4eeec",
".x c #c4aa8c",
".y c #f4aa5c",
".z c #d4c2b4",
".A c #e4d6cc",
".B c #b49274",
".C c #000000",
".D c #000000",
".E c #000000",
".F c #000000",
".G c #000000",
".H c #000000",
".I c #000000",
".J c #000000",
".K c #000000",
".L c #000000",
".M c #000000",
".N c #000000",
".O c #000000",
".P c #000000",
".Q c #000000",
".R c #000000",
".S c #000000",
".T c #000000",
".U c #000000",
".V c #000000",
".W c #000000",
".X c #000000",
".Y c #000000",
".Z c #000000",
".0 c #000000",
".1 c #000000",
".2 c #000000",
".3 c #000000",
".4 c #000000",
".5 c #000000",
".6 c #000000",
".7 c #000000",
".8 c #000000",
"#` c #000000",
"#. c #000000",
"## c #000000",
"#a c #000000",
"#b c #000000",
"#c c #000000",
"#d c #000000",
"#e c #000000",
"#f c #000000",
"#g c #000000",
"#h c #000000",
"#i c #000000",
"#j c #000000",
"#k c #000000",
"#l c #000000",
"#m c #000000",
"#n c #000000",
"#o c #000000",
"#p c #000000",
"#q c #000000",
"#r c #000000",
"#s c #000000",
"#t c #000000",
"#u c #000000",
"#v c #000000",
"#w c #000000",
"#x c #000000",
"#y c #000000",
"#z c #000000",
"#A c #000000",
"#B c #000000",
"#C c #000000",
"#D c #000000",
"#E c #000000",
"#F c #000000",
"#G c #000000",
"#H c #000000",
"#I c #000000",
"#J c #000000",
"#K c #000000",
"#L c #000000",
"#M c #000000",
"#N c #000000",
"#O c #000000",
"#P c #000000",
"#Q c #000000",
"#R c #000000",
"#S c #000000",
"#T c #000000",
"#U c #000000",
"#V c #000000",
"#W c #000000",
"#X c #000000",
"#Y c #000000",
"#Z c #000000",
"#0 c #000000",
"#1 c #000000",
"#2 c #000000",
"#3 c #000000",
"#4 c #000000",
"#5 c #000000",
"#6 c #000000",
"#7 c #000000",
"#8 c #000000",
"a` c #000000",
"a. c #000000",
"a# c #000000",
"aa c #000000",
"ab c #000000",
"ac c #000000",
"ad c #000000",
"ae c #000000",
"af c #000000",
"ag c #000000",
"ah c #000000",
"ai c #000000",
"aj c #000000",
"ak c #000000",
"al c #000000",
"am c #000000",
"an c #000000",
"ao c #000000",
"ap c #000000",
"aq c #000000",
"ar c #000000",
"as c #000000",
"at c #000000",
"au c #000000",
"av c #000000",
"aw c #000000",
"ax c #000000",
"ay c #000000",
"az c #000000",
"aA c #000000",
"aB c #000000",
"aC c #000000",
"aD c #000000",
"aE c #000000",
"aF c #000000",
"aG c #000000",
"aH c #000000",
"aI c #000000",
"aJ c #000000",
"aK c #000000",
"aL c #000000",
"aM c #000000",
"aN c #000000",
"aO c #000000",
"aP c #000000",
"aQ c #000000",
"aR c #000000",
"aS c #000000",
"aT c #000000",
"aU c #000000",
"aV c #000000",
"aW c #000000",
"aX c #000000",
"aY c #000000",
"aZ c #000000",
"a0 c #000000",
"a1 c #000000",
"a2 c #000000",
"a3 c #000000",
"a4 c #000000",
"a5 c #000000",
"a6 c #000000",
"a7 c #000000",
"a8 c #000000",
/* pixels */
"`W`W`W`W`W`W`W`W`W`3`4`S`z`W`W`W`a```x`v`k`Y`p`W`W`W`W`W`W`W`W`W",
"`W`W`W`W`W`W`W`W`4`I.b`e.m`W`W`W..```````````v`D`0`W`W`W`W`W`W`W",
"`W`W`W`W`W`W`W.s`Q.b`e`R`#`W`W`W.n``````````````.n`b`W`W`W`W`W`W",
"`W`W`W`W`W`W`W`C`u`e`e.b`L`W`W`W`D`O`v`x```````````M`D`l`W`W`W`W",
"`W`W`W`W`W`W`W`C`5`e`e`R`L`W`W`W`l`c`U`b.t`g`M`````````k.g`W`W`W",
"`W`W`W`W`W`W`W.s`5`e`e`R`L`W`W`W`W`W`W`W`W`U.t`x```````M`.`W`W`W",
"`W`W`W`W`W`W`W`C`u`e`e.b`#`W`W`W`W`W`W`W`W`W`W`b`g```````x`b`W`W",
"`W`W`W`W`W`W`W`C`5.b`e`R`z`W`N`T`h.m`C`W`W`W`W`W.k`g```````g.w`W",
"`W.g`c`W`W`W`W.s`5`e`e`R`I.y.q`R`A`A`Q`I.``W`W`W`W`b`x```````.`W",
".v`v`H`D`W`W`W`C`u`e`e`e`R`e.b`e.b`e`e`e.q.r`W`W`W`W`.```````g`0",
".f`````g`0`W`W`C`5`e.b`e`e`e`e`e`e`e`e`e`e`j.g`W`W`W`p`g`M`````y",
"`D`````g`P`W`W.s`5`e`e`e`e`e.b.a.y.q`e`e.y`l`W`W`W`W`W`D```````k",
"`P`.`k`i`W`W`W`C`u`e`e`e`e`u`N`l.g`3.r.e.l`4`N`K`N`W`W`r`x`````8",
"`W`W`W`W`W`W`W`C`5.b`e`e.a`C`W`W`W`W`W`W`K`u.r`t`Q`W`W`p`v`````x",
"`W`W`W`W`W`W`W.s`5`e`e.b`T`W`W`W`W`W`W`W`W`T`h.o`A`4`W`K`q``````",
".v`U`i`0.g`W`W`C`u`e`e`R`#`W`W`W`W`W`W`W`K.y.c.c`A`4`W.g`q``````",
"`m`````X`p`W`W.s.y`e`e.b`#`W`W`W`W`W`W`W`K.e.r`4.a`W`W.g.x``````",
"`X`````x`i`W`W`l`I`e`e`e`S`W`W`W`W`W`W`W`l.y`B.m`d`W`W.#`O``````",
"`a`````x`Y`W`W`W.r`e`e.b.q.m`W`W`W`W`3`C.g`I.j`4.y`W`W`p`8`````x",
"`J```````k`W`W`W`z.q`e`e`e`A.j`N`N`4.e`Q`z`s`s`3`z`W`W`b.u`````v",
"`b```````g`K`W`W`W.j`e`e`e`e`e`R.q`e.b`e.a`E`W`W`W`W.g`J```````J",
"`P`x`M```x`.`W`W`W`K`f`e`e`e.b`e`e`e`e`e`e.y`W`W`W`W`i`X`````M`b",
"`W.t```````g.w`W`W`W`l.r.q`e`e`e`e.b`e`e`u`4`W`W`W.g`k```````v`p",
"`W`0`x```````q`K`W`W`W`W.``S`j`Q`d`5`I`h.l`W`W`W`W`y`M```````y`W",
"`W`W`6```````M`k`l`W`W`W`W`W`s`E`N`z`K`W`W`W`W`W.i.p``````.n`P`W",
"`W`W`P.n`````````q.w`W`W`W`W`W`W`W`W`W`W`W`W.g`D`m```````X.k`W`W",
"`W`W`W`p`g`M```````g`y`K`W`W`W`W`W`W`W`W`W.A..`M```````M`Y`W`W`W",
"`W`W`W`W`i`g`````````M.B.f`b`U.w`c`0.A`D`a`m`````````M`y`W`W`W`W",
"`W`W`W`W`W`p.n`M```````````x`X`X`X`X.h`M```````````x`b`W`W`W`W`W",
"`W`W`W`W`W`W`P`.`M```````````````````````````````q`p`W`W`W`W`W`W",
"`W`W`W`W`W`W`W`l`p`J`x`M```````````````````M`O`r`P`W`W`W`W`W`W`W",
"`W`W`W`W`W`W`W`W`W`W`c`b`k`v`X`x`x`X`v`q`y`p`P`W`W`W`W`W`W`W`W`W"
};
